<svg xmlns="http://www.w3.org/2000/svg" version="1.1" xmlns:xlink="http://www.w3.org/1999/xlink" xmlns:svgjs="http://svgjs.dev/svgjs" width="1000" height="1000" viewBox="0 0 1000 1000"><g transform="matrix(1,0,0,1,0,0)"><svg viewBox="0 0 280 280" data-background-color="#ffffff" preserveAspectRatio="xMidYMid meet" height="1000" width="1000" xmlns="http://www.w3.org/2000/svg" xmlns:xlink="http://www.w3.org/1999/xlink"><g id="tight-bounds" transform="matrix(1,0,0,1,0,0)"><svg viewBox="0 0 280 280" height="280" width="280"><g><svg viewBox="0 0 280 280" height="280" width="280"><g><svg viewBox="0 0 280 280" height="280" width="280"><g id="textblocktransform"><svg viewBox="0 0 280 280" height="280" width="280" id="textblock"><g><svg viewBox="0 0 280 280" height="280" width="280"><g transform="matrix(1,0,0,1,90.50252531694167,90.50252531694167)"><svg viewBox="0 0 98.99494936611666 98.99494936611666" height="98.99494936611666" width="98.99494936611666"><g><circle r="49" cx="49.49747468305833" cy="49.49747468305833" fill="#b19dd0" data-fill-palette-color="accent"></circle></g></svg></g><g><path d="M34.354 95.913l-5.276 15.775-26.544-8.879 1.205-3.602 23.283 7.788 4.071-12.173z" fill="#bb84e8" data-fill-palette-color="primary"></path><path d="M71.202 50.319l-2.946 2.398-17.675-21.702 2.946-2.399z" fill="#bb84e8" data-fill-palette-color="primary"></path><path d="M128.4 28.401l-3.984 0.347-2.429-27.884 9.202-0.801c1.872-0.163 3.545-0.008 5.017 0.466 1.473 0.474 2.662 1.34 3.568 2.599 0.906 1.259 1.453 2.977 1.643 5.155v0c0.186 2.138-0.058 3.908-0.731 5.311-0.674 1.403-1.694 2.479-3.06 3.227-1.366 0.748-2.986 1.203-4.858 1.366v0l-5.219 0.455zM126.266 3.903l0.989 11.353 4.66-0.406c2.032-0.177 3.515-0.771 4.45-1.783 0.935-1.011 1.319-2.48 1.152-4.405v0c-0.169-1.939-0.775-3.331-1.819-4.176-1.044-0.846-2.634-1.175-4.772-0.989v0z" fill="#bb84e8" data-fill-palette-color="primary"></path><path d="M202.443 46.385v0c-0.985-0.612-1.924-1.298-2.817-2.058-0.893-0.759-1.686-1.516-2.379-2.268-0.693-0.753-1.236-1.432-1.629-2.037v0l2.574-3.155c0.428 0.674 0.977 1.439 1.645 2.294 0.669 0.855 1.44 1.704 2.314 2.545 0.874 0.841 1.825 1.582 2.855 2.223v0c1.528 0.95 2.916 1.425 4.164 1.424 1.248-0.001 2.242-0.595 2.981-1.783v0c0.556-0.894 0.785-1.768 0.688-2.621-0.097-0.853-0.475-1.767-1.132-2.741-0.658-0.974-1.545-2.091-2.661-3.349v0c-1.062-1.194-1.979-2.396-2.75-3.605-0.771-1.209-1.211-2.464-1.32-3.764-0.11-1.3 0.293-2.686 1.208-4.158v0c0.781-1.256 1.798-2.166 3.051-2.729 1.253-0.563 2.679-0.724 4.279-0.482 1.6 0.241 3.317 0.932 5.15 2.073v0c1.562 0.971 2.891 2.033 3.987 3.185 1.096 1.152 1.942 2.196 2.537 3.132v0l-2.472 3.218c-0.812-1.572-1.701-2.886-2.669-3.943-0.967-1.057-2.079-1.976-3.335-2.757v0c-1.392-0.866-2.706-1.322-3.941-1.367-1.235-0.046-2.218 0.52-2.95 1.697v0c-0.493 0.792-0.692 1.567-0.598 2.324 0.094 0.757 0.432 1.564 1.015 2.42 0.582 0.856 1.36 1.838 2.334 2.946v0c1.343 1.526 2.41 2.978 3.201 4.356 0.791 1.379 1.213 2.732 1.265 4.06 0.053 1.328-0.35 2.682-1.208 4.063v0c-0.633 1.019-1.396 1.816-2.287 2.391-0.892 0.576-1.902 0.913-3.031 1.012-1.129 0.099-2.368-0.06-3.718-0.476-1.35-0.416-2.801-1.106-4.351-2.07z" fill="#bb84e8" data-fill-palette-color="primary"></path><path d="M261.418 105.293l-3.222 1.201-4.19-11.24 3.222-1.201zM251.827 111.044l19.74-16.532 0.391 1.049-25.745 0.421-1.397-3.747 29.732-0.371 1.397 3.747-22.722 19.179z" fill="#bb84e8" data-fill-palette-color="primary"></path><path d="M15.745 199.477l-5.406-16.089 27.062-9.093 1.235 3.676-23.736 7.976 4.171 12.413z" fill="#bb84e8" data-fill-palette-color="primary"></path><path d="M58.727 253.775l-3.006-2.45 18.04-22.128 3.006 2.451z" fill="#bb84e8" data-fill-palette-color="primary"></path><path d="M126.403 280l-4.063-0.361 2.527-28.437 9.389 0.834c1.912 0.17 3.564 0.624 4.957 1.364 1.393 0.739 2.431 1.822 3.113 3.247 0.69 1.426 0.936 3.248 0.739 5.465v0c-0.194 2.184-0.756 3.92-1.687 5.209-0.924 1.289-2.138 2.188-3.642 2.697-1.503 0.502-3.211 0.668-5.122 0.498v0l-5.327-0.473zM128.622 255.018l-1.029 11.58 4.76 0.423c2.071 0.184 3.666-0.149 4.785-1 1.119-0.851 1.766-2.258 1.941-4.223v0c0.176-1.978-0.186-3.482-1.085-4.512-0.898-1.036-2.436-1.651-4.613-1.845v0z" fill="#bb84e8" data-fill-palette-color="primary"></path><path d="M213.266 260.231v0c-1.003 0.621-2.054 1.17-3.154 1.647-1.098 0.468-2.148 0.848-3.151 1.139-1.003 0.292-1.868 0.483-2.596 0.573v0l-1.723-3.789c0.809-0.086 1.757-0.238 2.845-0.457 1.084-0.224 2.208-0.548 3.373-0.971 1.168-0.417 2.276-0.951 3.324-1.599v0c1.564-0.968 2.628-2.022 3.192-3.163 0.564-1.141 0.47-2.317-0.281-3.53v0c-0.565-0.912-1.26-1.516-2.086-1.812-0.82-0.299-1.828-0.369-3.022-0.21-1.185 0.162-2.606 0.469-4.261 0.921v0c-1.571 0.424-3.085 0.714-4.54 0.871-1.455 0.156-2.8-0.01-4.036-0.499-1.241-0.486-2.327-1.479-3.256-2.981v0c-0.793-1.281-1.162-2.624-1.107-4.029 0.053-1.396 0.55-2.77 1.492-4.122 0.948-1.355 2.357-2.611 4.227-3.769v0c1.598-0.989 3.172-1.725 4.724-2.207 1.546-0.479 2.882-0.777 4.008-0.894v0l1.819 3.717c-1.802 0.026-3.404 0.242-4.807 0.648-1.403 0.406-2.747 1.007-4.033 1.803v0c-1.422 0.88-2.433 1.875-3.033 2.983-0.603 1.102-0.531 2.257 0.217 3.464v0c0.498 0.805 1.114 1.337 1.846 1.596 0.739 0.256 1.628 0.313 2.668 0.17 1.046-0.146 2.3-0.413 3.761-0.8v0c1.999-0.532 3.809-0.849 5.43-0.951 1.616-0.099 3.042 0.127 4.277 0.679 1.239 0.558 2.295 1.542 3.168 2.953v0c0.642 1.037 1.025 2.093 1.15 3.168 0.125 1.075-0.024 2.151-0.447 3.228-0.423 1.077-1.13 2.138-2.121 3.182-0.991 1.045-2.28 2.058-3.867 3.041z" fill="#bb84e8" data-fill-palette-color="primary"></path><path d="M259.096 182.698l3.286 1.232-4.297 11.456-3.285-1.232zM270.328 184.689l-26.262-0.486 0.4-1.067 20.106 16.903-1.432 3.819-23.137-19.609 1.432-3.819 30.325 0.44z" fill="#bb84e8" data-fill-palette-color="primary"></path><path d="M3.747 144.365c0-6.023 4.883-10.906 10.905-10.906 6.023 0 10.906 4.883 10.906 10.906 0 6.023-4.883 10.906-10.906 10.906-6.023 0-10.906-4.883-10.905-10.906z" fill="#bb84e8" data-fill-palette-color="primary"></path><path d="M255.654 144.365c0-6.023 4.883-10.906 10.906-10.906 6.023 0 10.906 4.883 10.906 10.906 0 6.023-4.883 10.906-10.906 10.906-6.023 0-10.906-4.883-10.906-10.906z" fill="#bb84e8" data-fill-palette-color="primary"></path></g></svg></g></svg></g></svg></g><g></g></svg></g><defs></defs></svg><rect width="280" height="280" fill="none" stroke="none" visibility="hidden"></rect></g></svg></g></svg>